PathFileType	4	(X/Y/Z)	/Users/mathieubourgeois/Desktop/Analyse/Traitement/Sujet_07/Data/Transformed_Sujet_07_velo_100.trc
DataRate	CameraRate	NumFrames	NumMarkers	Units	OrigDataRate	OrigDataStartFrame	OrigNumFrames
120.000000	120.000000	4	36	mm	120.000000	466	1864
Frame#	Time	RKNE			RKNI			LKNI			LKNE			LANI			LANE			LTOE			LHEE			RHEE			RTOE			RANE			RANI			RFWT			LFWT			RBWT			LBWT			T10			C7			RSHO			LSHO			LWRA			LWRB			RWRA			RWRB			RCAR			LCAR			LHUM			LRAD			RRAD			RHUM			STRN			RFHD			LFHD			RBHD			LBHD			CLAV			
		X1	Y1	Z1	X2	Y2	Z2	X3	Y3	Z3	X4	Y4	Z4	X5	Y5	Z5	X6	Y6	Z6	X7	Y7	Z7	X8	Y8	Z8	X9	Y9	Z9	X10	Y10	Z10	X11	Y11	Z11	X12	Y12	Z12	X13	Y13	Z13	X14	Y14	Z14	X15	Y15	Z15	X16	Y16	Z16	X17	Y17	Z17	X18	Y18	Z18	X19	Y19	Z19	X20	Y20	Z20	X21	Y21	Z21	X22	Y22	Z22	X23	Y23	Z23	X24	Y24	Z24	X25	Y25	Z25	X26	Y26	Z26	X27	Y27	Z27	X28	Y28	Z28	X29	Y29	Z29	X30	Y30	Z30	X31	Y31	Z31	X32	Y32	Z32	X33	Y33	Z33	X34	Y34	Z34	X35	Y35	Z35	X36	Y36	Z36	

467	3.883333333333333	-45.76201248168948	881.7205200195312	230.6421356201171	-24.12745285034181	821.4013671875	127.948127746582	-159.5267333984375	732.3001708984375	-27.82428169250495	-129.1900024414062	776.0179443359375	-132.2164764404298	-381.3744506835938	425.4688720703125	-42.63141632080086	-402.9577026367188	425.6640014648438	-130.3301849365235	-248.2772827148438	281.9549560546875	-105.0750274658204	-461.4931945800781	440.6350708007812	-91.16828155517587	-189.6435089111328	411.2242736816406	184.4702606201171	74.58817291259763	376.8131103515625	194.5600128173828	-131.2996673583985	435.0657348632812	223.7553558349609	-109.5048141479492	445.7124328613281	135.245361328125	-276.1845703125	1220.469848632812	150.9914245605468	-293.3895874023438	1209.410278320312	-63.96138381958018	-432.3934631347656	1305.246215820312	108.9369812011717	-440.725830078125	1298.107299804688	-4.247844219207897	-176.1974792480469	1503.485717773438	30.1099281311034	70.47062683105469	1469.52978515625	54.75833129882804	69.08635711669919	1426.07373046875	194.1814575195312	102.1406021118164	1449.253540039062	-65.6460266113282	316.7179870605469	930.7772216796875	-103.9524612426758	275.9184265136719	888.1076049804688	-153.9166107177735	322.7556152343749	939.8599243164062	251.9498901367187	279.5832519531249	901.666748046875	300.0318603515625	367.5029296874999	924.74609375	343.5346984863281	371.6426696777344	915.5159912109375	-192.6959533691406	99.77149963378908	1126.967163085938	-136.0671691894532	162.713607788086	1142.6171875	-150.8695373535157	121.9962387084961	1126.603881835938	277.1427917480468	77.874885559082	1100.263427734375	232.8375091552734	-117.771110534668	1269.7861328125	39.32433700561514	278.895751953125	1338.154174804688	142.2873077392578	285.8728637695312	1324.820068359375	9.514928817748977	219.8849182128906	1478.03515625	142.5262603759765	222.7926483154297	1480.343505859375	-3.957794666290347	47.66161727905273	1334.381103515625	57.99172592163079	
468	3.891666666666667	-52.68063735961917	868.9845581054688	231.3866271972656	-31.27985954284669	808.6867065429688	128.7304534912109	-149.2298583984375	741.5675659179688	-28.72819519042975	-119.518440246582	784.9259033203125	-133.3595581054688	-380.6309509277344	442.0941162109375	-42.0556945800782	-402.5708618164062	443.0878295898438	-129.7276153564454	-251.5409698486328	295.233642578125	-104.9450073242188	-460.5966491699219	459.4281005859375	-90.25875854492196	-185.9000244140625	395.8814392089844	184.6929931640624	78.256477355957	360.7977600097656	194.1170806884765	-127.8739700317383	419.644287109375	224.0100402832031	-106.1442489624024	430.8057861328125	135.5771331787109	-275.7420654296875	1218.970336914062	150.6085357666014	-294.0643005371094	1209.52197265625	-63.61347579956065	-432.25244140625	1304.065063476562	110.5561218261717	-441.3011779785156	1297.630737304688	-2.705462455749645	-177.0048065185547	1503.344970703125	30.22557449340809	69.79615783691406	1469.424682617188	53.55774688720695	68.89238739013669	1425.743530273438	193.1875610351562	101.188850402832	1449.009399414062	-67.06585693359382	316.46630859375	930.924560546875	-103.9945907592774	275.7304077148438	888.1585083007812	-153.905990600586	322.7396545410156	939.7874755859375	251.9194641113281	279.5321960449218	901.6390380859375	299.9828186035156	367.3918457031249	924.8032836914062	343.5801391601562	371.5022583007812	915.603271484375	-192.6304168701172	99.14071655273439	1126.703979492188	-136.7755126953126	161.9826965332032	1142.40966796875	-151.6612091064453	121.7955856323242	1126.374633789062	276.5877075195312	77.71067047119138	1099.914916992188	232.3374023437499	-118.4665603637695	1269.606201171875	39.07413482666006	278.3353271484375	1338.151733398438	141.4528045654296	285.4170837402344	1324.683227539062	8.680239677429153	219.2059478759765	1477.98486328125	141.4986724853515	222.2704315185547	1480.203002929688	-5.000981330871645	47.10270309448241	1334.16650390625	56.8715744018554	
469	3.9	-60.2713432312012	856.020751953125	232.2301635742187	-38.22803115844728	795.3927612304688	129.8331298828124	-138.8845367431641	751.3068237304688	-29.63198089599616	-110.1136703491211	794.3714599609375	-134.5938415527344	-378.8775329589844	458.8537292480469	-41.44811630249031	-401.0336608886719	460.4004516601562	-129.094955444336	-253.4215393066406	309.1146545410156	-104.6664428710938	-458.0455322265625	478.8348693847656	-89.39028930664071	-183.452880859375	381.0948181152344	184.9326171874999	80.39409637451169	344.4104614257812	193.643814086914	-125.7376251220703	404.5234985351562	224.2910003662109	-104.1581268310547	416.1655883789062	135.9750366210937	-275.1221313476562	1217.492919921875	150.7558288574218	-294.5087280273438	1209.779296875	-63.23050689697276	-432.0555725097656	1302.943603515625	112.0844726562499	-441.68115234375	1297.299072265625	-1.193969011306896	-177.6942138671875	1503.2626953125	30.42045783996571	69.27531433105469	1469.334838867188	52.30579376220695	68.87262725830075	1425.465087890625	192.0398864746093	100.3363723754883	1448.806762695312	-68.56921386718757	316.2492065429688	931.0574951171875	-104.0997924804688	275.5638427734375	888.1708374023438	-153.9690856933594	322.7536926269531	939.7030639648438	251.8126525878906	279.5265197753906	901.6061401367188	299.8726196289062	367.3085021972656	924.8540649414062	343.555908203125	371.3777160644531	915.6499633789062	-192.6355743408203	98.58174896240236	1126.469360351562	-137.4753570556641	161.3249816894532	1142.23486328125	-152.4918670654297	121.6948471069336	1126.174072265625	276.0319824218749	77.60087585449216	1099.593505859375	231.8021850585937	-119.039306640625	1269.46142578125	38.74203491210928	277.8400573730469	1338.084350585938	140.4800872802734	285.0525817871094	1324.544311523438	7.748750686645462	218.6195373535156	1477.924072265625	140.3929443359374	221.8592224121094	1480.030151367188	-6.122591972351137	46.69020462036132	1333.942749023438	55.63183975219719	
470	3.908333333333333	-68.70520782470706	842.9955444335938	233.0968322753906	-46.46775054931642	783.07275390625	130.9395141601562	-128.6568145751953	761.4205932617188	-30.59708023071295	-100.9874649047851	804.2205810546875	-135.8662719726563	-375.9476013183594	475.7014465332031	-41.23363876342781	-398.5145874023438	477.4289855957031	-128.4051055908204	-253.7829742431641	323.352783203125	-104.4731674194336	-455.7649230957031	495.9308166503906	-88.27737426757821	-182.3243255615235	366.9345397949219	185.1037445068359	81.13514709472653	327.7595520019531	193.1149597167968	-124.8262634277344	389.8642883300781	224.6111450195312	-103.3427429199219	401.9091796875	136.4160614013672	-274.4558410644531	1216.044311523438	150.9958648681639	-294.832275390625	1210.142700195312	-62.84754180908214	-431.70556640625	1301.905395507812	113.5720367431639	-441.9639892578125	1297.117065429688	0.3184145689009285	-178.1945495605469	1503.243530273438	30.6894073486327	68.90531921386719	1469.316650390625	50.96619033813468	69.03639221191403	1425.27783203125	190.7937469482421	99.66542816162111	1448.663818359375	-70.13129425048835	316.0626831054688	931.2042236328125	-104.2921981811524	275.4439086914062	888.1826782226562	-154.0737762451172	322.7950134277343	939.6043701171875	251.6528930664062	279.5367736816406	901.568603515625	299.71142578125	367.2591247558593	924.9107055664062	343.4755249023438	371.2798156738281	915.6417846679688	-192.7145538330078	98.0192337036133	1126.283935546875	-138.307113647461	160.7852020263672	1142.080200195312	-153.3655853271485	121.6883316040039	1125.995361328125	275.3951416015624	77.57253265380857	1099.380004882812	231.2469024658203	-119.5907211303711	1269.429931640625	38.61708450317374	277.3917541503906	1337.983154296875	139.4192504882812	284.7282104492188	1324.399169921875	6.689737319946243	218.2060852050781	1477.861328125	139.1740570068359	221.5588226318359	1479.866333007812	-7.342643737793032	46.22957611083984	1333.810791015625	54.41568756103509	
